<?xml version="1.0"?>
<svg xmlns="http://www.w3.org/2000/svg" height="512px" viewBox="0 -9 496 496" width="512px" class=""><g><path d="m238.433594 207.246094-4.1875 16.753906h27.507812l-4.195312-16.753906c-3.132813.449218-6.320313.753906-9.558594.753906s-6.425781-.304688-9.566406-.753906zm0 0" data-original="#000000" class="active-path" data-old_color="#000000" fill="#FFFFFF"/><path d="m248 140.6875 27.710938-27.71875c2.730468-2.730469 4.289062-6.488281 4.289062-10.34375 0-8.066406-6.558594-14.625-14.632812-14.625-3.902344 0-7.582032 1.519531-10.34375 4.28125l-7.023438 7.046875-7.03125-7.054687c-2.761719-2.753907-6.433594-4.273438-10.335938-4.273438-8.074218 0-14.632812 6.558594-14.632812 14.625 0 3.847656 1.558594 7.613281 4.28125 10.34375zm0 0" data-original="#000000" class="active-path" data-old_color="#000000" fill="#FFFFFF"/><path d="m120 128c18.648438 0 36.0625-8.089844 48.257812-22.152344.988282-18.6875 6.429688-35.902344 15.101563-50.183594-4.121094-31.886718-30.910156-55.664062-63.359375-55.664062-35.289062 0-64 28.710938-64 64s28.710938 64 64 64zm0-112v16c-17.648438 0-32 14.351562-32 32h-16c0-26.472656 21.527344-48 48-48zm0 0" data-original="#000000" class="active-path" data-old_color="#000000" fill="#FFFFFF"/><path d="m376 128c35.289062 0 64-28.710938 64-64s-28.710938-64-64-64c-32.449219 0-59.238281 23.777344-63.359375 55.664062 8.671875 14.28125 14.113281 31.496094 15.101563 50.183594 12.195312 14.0625 29.609374 22.152344 48.257812 22.152344zm0-112c26.472656 0 48 21.527344 48 48h-16c0-17.648438-14.351562-32-32-32zm0 0" data-original="#000000" class="active-path" data-old_color="#000000" fill="#FFFFFF"/><path d="m366.398438 143.398438-4.152344 16.601562h27.507812l-4.160156-16.632812c-3.152344.375-6.335938.632812-9.59375.632812-3.238281 0-6.441406-.222656-9.601562-.601562zm0 0" data-original="#000000" class="active-path" data-old_color="#000000" fill="#FFFFFF"/><path d="m483.296875 289.527344c-.542969.402344-36.265625 25.816406-100.519531 44.105468-1.800782-7.3125-5.296875-12.21875-8.296875-16.351562-3.769531-5.167969-6.480469-8.90625-6.480469-17.320312 0-8.410157 2.710938-12.144532 6.472656-17.3125 4.238282-5.839844 9.527344-13.121094 9.527344-26.726563 0-13.59375-5.289062-20.859375-9.527344-26.699219-3.761718-5.152344-6.472656-8.878906-6.472656-17.269531 0-8.386719 2.710938-12.113281 6.472656-17.265625 3.320313-4.558594 7.238282-10.039062 8.808594-18.6875h-16.527344c-1.136718 3.433594-2.9375 6.136719-5.21875 9.265625-4.246094 5.839844-9.535156 13.09375-9.535156 26.6875 0 13.589844 5.289062 20.855469 9.527344 26.695313 3.761718 5.160156 6.472656 8.878906 6.472656 17.273437 0 8.414063-2.710938 12.148437-6.472656 17.316406-4.246094 5.851563-9.527344 13.113281-9.527344 26.722657 0 13.605468 5.289062 20.878906 9.527344 26.726562 2.664062 3.664062 4.753906 6.679688 5.769531 11.082031-29.753906 7.359375-64.777344 12.894531-104.542969 14.015625-1.976562-6.257812-5.945312-10.296875-9.097656-13.457031-3.921875-3.929687-5.65625-5.847656-5.65625-10.359375 0-4.496094 1.734375-6.433594 5.65625-10.351562 4.367188-4.371094 10.34375-10.351563 10.34375-21.671876 0-11.3125-5.984375-17.289062-10.34375-21.648437-3.921875-3.921875-5.65625-5.839844-5.65625-10.328125s1.734375-6.410156 5.65625-10.328125c3.191406-3.191406 7.230469-7.273437 9.175781-13.640625h-18.246093c-.65625.71875-1.378907 1.464844-2.242188 2.328125-4.359375 4.359375-10.34375 10.335937-10.34375 21.640625s5.976562 17.277344 10.34375 21.640625c3.921875 3.917969 5.65625 5.839844 5.65625 10.335937 0 4.503907-1.734375 6.429688-5.664062 10.359376-4.359376 4.367187-10.335938 10.351562-10.335938 21.664062 0 11.320312 5.976562 17.304688 10.335938 21.671875.855468.863281 1.566406 1.597656 2.222656 2.3125-44.414063-.296875-83.285156-6.160156-115.847656-14.226563 1.023437-4.375 3.105468-7.382812 5.761718-11.039062 4.238282-5.839844 9.527344-13.121094 9.527344-26.726562 0-13.609376-5.28125-20.871094-9.527344-26.722657-3.761718-5.167969-6.472656-8.902343-6.472656-17.316406 0-8.394531 2.710938-12.121094 6.472656-17.273437 4.238282-5.832032 9.527344-13.105469 9.527344-26.695313 0-13.59375-5.289062-20.847656-9.527344-26.6875-2.28125-3.128906-4.082031-5.832031-5.214844-9.265625h-16.53125c1.570313 8.648438 5.488282 14.128906 8.808594 18.6875 3.753906 5.152344 6.464844 8.878906 6.464844 17.265625 0 8.390625-2.710938 12.117187-6.472656 17.269531-4.238282 5.839844-9.527344 13.105469-9.527344 26.699219 0 13.605469 5.289062 20.878906 9.527344 26.726563 3.761718 5.175781 6.472656 8.902343 6.472656 17.3125 0 8.414062-2.710938 12.152343-6.472656 17.320312-3 4.125-6.480469 9.023438-8.289063 16.304688-64.175781-18.28125-99.992187-43.664063-100.542969-44.066407l-9.40625 12.945313c.984376.71875 8.054688 5.742187 20.710938 12.703125v146.96875l48-28.808594 48 28.808594v-109.898438h-.007812c5.183593 1.328125 10.496093 2.617188 16.007812 3.832031v122.066407l48-28.808594 48 28.808594v-110.382813c5.257812.148438 10.574219.246094 16 .246094s10.742188-.097656 16-.246094v110.382813l48-28.808594 48 28.808594v-122.066407c5.503906-1.214843 10.824219-2.503906 16.007812-3.832031h-.007812v109.898438l48-28.808594 48 28.808594v-146.96875s-.007812.007812-.007812.007812c12.664062-6.960937 19.734374-11.992187 20.71875-12.703125zm-432.226563 38.976562c.082032.039063.167969.070313.257813.113282-.089844-.03125-.175781-.074219-.257813-.113282zm393.59375.121094c.097657-.039062.191407-.082031.28125-.128906-.097656.046875-.191406.089844-.28125.128906zm0 0" data-original="#000000" class="active-path" data-old_color="#000000" fill="#FFFFFF"/><path d="m110.40625 143.367188-4.160156 16.632812h27.507812l-4.152344-16.601562c-3.160156.378906-6.363281.601562-9.601562.601562-3.257812 0-6.441406-.257812-9.59375-.632812zm0 0" data-original="#000000" class="active-path" data-old_color="#000000" fill="#FFFFFF"/><path d="m248 192c35.289062 0 64-35.886719 64-80s-28.710938-80-64-80-64 35.886719-64 80 28.710938 80 64 80zm-17.367188-120c6.296876 0 12.304688 1.886719 17.367188 5.390625 5.070312-3.511719 11.078125-5.390625 17.367188-5.390625 16.898437 0 30.632812 13.742188 30.632812 30.625 0 8.183594-3.183594 15.871094-8.976562 21.65625l-39.023438 39.03125-39.023438-39.03125c-5.792968-5.785156-8.976562-13.464844-8.976562-21.65625 0-16.882812 13.734375-30.625 30.632812-30.625zm0 0" data-original="#000000" class="active-path" data-old_color="#000000" fill="#FFFFFF"/><path d="m16 152h16v16h-16zm0 0" data-original="#000000" class="active-path" data-old_color="#000000" fill="#FFFFFF"/><path d="m0 168h16v16h-16zm0 0" data-original="#000000" class="active-path" data-old_color="#000000" fill="#FFFFFF"/><path d="m16 184h16v16h-16zm0 0" data-original="#000000" class="active-path" data-old_color="#000000" fill="#FFFFFF"/><path d="m32 168h16v16h-16zm0 0" data-original="#000000" class="active-path" data-old_color="#000000" fill="#FFFFFF"/><path d="m176 264h16v16h-16zm0 0" data-original="#000000" class="active-path" data-old_color="#000000" fill="#FFFFFF"/><path d="m160 280h16v16h-16zm0 0" data-original="#000000" class="active-path" data-old_color="#000000" fill="#FFFFFF"/><path d="m176 296h16v16h-16zm0 0" data-original="#000000" class="active-path" data-old_color="#000000" fill="#FFFFFF"/><path d="m192 280h16v16h-16zm0 0" data-original="#000000" class="active-path" data-old_color="#000000" fill="#FFFFFF"/><path d="m464 112h16v16h-16zm0 0" data-original="#000000" class="active-path" data-old_color="#000000" fill="#FFFFFF"/><path d="m448 128h16v16h-16zm0 0" data-original="#000000" class="active-path" data-old_color="#000000" fill="#FFFFFF"/><path d="m464 144h16v16h-16zm0 0" data-original="#000000" class="active-path" data-old_color="#000000" fill="#FFFFFF"/><path d="m480 128h16v16h-16zm0 0" data-original="#000000" class="active-path" data-old_color="#000000" fill="#FFFFFF"/><path d="m424 240h16v16h-16zm0 0" data-original="#000000" class="active-path" data-old_color="#000000" fill="#FFFFFF"/><path d="m408 256h16v16h-16zm0 0" data-original="#000000" class="active-path" data-old_color="#000000" fill="#FFFFFF"/><path d="m424 272h16v16h-16zm0 0" data-original="#000000" class="active-path" data-old_color="#000000" fill="#FFFFFF"/><path d="m440 256h16v16h-16zm0 0" data-original="#000000" class="active-path" data-old_color="#000000" fill="#FFFFFF"/></g> </svg>
