<?xml version="1.0"?>
<svg xmlns="http://www.w3.org/2000/svg" xmlns:xlink="http://www.w3.org/1999/xlink" version="1.1" id="Capa_1" x="0px" y="0px" viewBox="0 0 472.062 472.062" style="enable-background:new 0 0 472.062 472.062;" xml:space="preserve" width="512px" height="512px" class=""><g><g>
	<g>
		<path d="M356.031,48.062h-72v-8c0-4.418-3.582-8-8-8h-42.728c-8.81-25.003-36.22-38.13-61.223-29.321    c-13.709,4.83-24.49,15.612-29.321,29.321h-42.728c-4.418,0-8,3.582-8,8v8h-72c-4.418,0-8,3.582-8,8v408c0,4.418,3.582,8,8,8h336    c4.418,0,8-3.582,8-8v-408C364.031,51.643,360.449,48.062,356.031,48.062z M108.031,48.062h40.8    c3.805,0.005,7.087-2.672,7.848-6.4c3.539-17.315,20.444-28.483,37.759-24.945c12.561,2.567,22.378,12.384,24.945,24.945    c0.761,3.728,4.043,6.405,7.848,6.4h40.8v56h-160V48.062z M100.031,120.062h176c4.418,0,8-3.582,8-8v-16h32v328h-256v-328h32v16    C92.031,116.48,95.613,120.062,100.031,120.062z M348.031,456.062h-320v-392h64v16h-40c-4.418,0-8,3.582-8,8v344    c0,4.418,3.582,8,8,8h272c4.418,0,8-3.582,8-8v-344c0-4.418-3.582-8-8-8h-40v-16h64V456.062z" data-original="#000000" class="active-path" data-old_color="#000000" fill="#FFFFFF"/>
	</g>
</g><g>
	<g>
		<path d="M188.031,24.062c-13.255,0-24,10.745-24,24s10.745,24,24,24s24-10.745,24-24S201.286,24.062,188.031,24.062z     M188.031,56.062c-4.418,0-8-3.582-8-8s3.582-8,8-8s8,3.582,8,8S192.449,56.062,188.031,56.062z" data-original="#000000" class="active-path" data-old_color="#000000" fill="#FFFFFF"/>
	</g>
</g><g>
	<g>
		<path d="M252.031,216.062h-32v-32c0-4.418-3.582-8-8-8h-48c-4.418,0-8,3.582-8,8v32h-32c-4.418,0-8,3.582-8,8v48    c0,4.418,3.582,8,8,8h32v32c0,4.418,3.582,8,8,8h48c4.418,0,8-3.582,8-8v-32h32c4.418,0,8-3.582,8-8v-48    C260.031,219.643,256.449,216.062,252.031,216.062z M244.031,264.062h-32c-4.418,0-8,3.582-8,8v32h-32v-32c0-4.418-3.582-8-8-8    h-32v-32h32c4.418,0,8-3.582,8-8v-32h32v32c0,4.418,3.582,8,8,8h32V264.062z" data-original="#000000" class="active-path" data-old_color="#000000" fill="#FFFFFF"/>
	</g>
</g><g>
	<g>
		<path d="M420.031,128.062c-22.08,0.026-39.974,17.92-40,40v240c-0.001,1.817,0.617,3.581,1.752,5l32,40    c2.759,3.451,7.794,4.011,11.244,1.252c0.462-0.37,0.882-0.789,1.252-1.252l32-40c1.135-1.419,1.753-3.183,1.752-5v-240    C460.004,145.981,442.111,128.088,420.031,128.062z M396.031,192.062h16v201.76l-16,4V192.062z M420.031,435.262l-17.968-22.456    l17.968-4.496l17.968,4.488L420.031,435.262z M444.031,397.822l-16-4v-201.76h16V397.822z M444.031,176.062h-48v-8    c0-13.255,10.745-24,24-24s24,10.745,24,24V176.062z" data-original="#000000" class="active-path" data-old_color="#000000" fill="#FFFFFF"/>
	</g>
</g></g> </svg>
