<?xml version="1.0"?>
<svg xmlns="http://www.w3.org/2000/svg" height="512px" viewBox="0 -30 512 511" width="512px" class=""><g><path d="m0 150.597656v301.855469h331.878906v-301.855469zm60.035156 46.054688h180.953125v30h-180.953125zm0 60.050781h30.832032v30h-30.832032zm0 60.046875h180.953125v30h-180.953125zm30.832032 90.046875h-30.832032v-30h30.832032zm210.976562 0h-180.953125v-30h180.953125zm0-60.046875h-30.832031v-30h30.832031zm0-60.046875h-180.953125v-30h180.953125zm-30.832031-60.050781v-30h30.832031v30zm0 0" data-original="#000000" class="active-path" data-old_color="#000000" fill="#FFFFFF"/><path d="m361.878906 452.453125h150.121094v-301.855469h-150.121094zm30.035156-256.203125h60.050782v30h-60.050782zm0 60.453125h60.050782v30h-60.050782zm0 60.046875h60.050782v30h-60.050782zm60.050782 60.046875v30h-60.050782v-30zm0 0" data-original="#000000" class="active-path" data-old_color="#000000" fill="#FFFFFF"/><path d="m0 .5v120.097656h512v-120.097656zm90.058594 75.046875h-30.023438v-30h30.023438zm60.050781 0h-30.023437v-30h30.023437zm60.046875 0h-30.023438v-30h30.023438zm0 0" data-original="#000000" class="active-path" data-old_color="#000000" fill="#FFFFFF"/></g> </svg>
